<svg width="96" height="96" viewBox="0 0 96 96" fill="none" xmlns="http://www.w3.org/2000/svg">
  <rect x="4" y="4" width="88" height="88" rx="28" fill="url(#bg)" />
  <path d="M24 58.6C24 44.3 35.5 32.7 49.7 32.7C63.8 32.7 75.3 44.3 75.3 58.6C75.3 64.9 70.2 70 64 70H35.2C29 70 24 64.9 24 58.6Z" fill="#FFD44A"/>
  <path d="M57.1 27.3C57.1 19.9 63.1 14 70.4 14C77.8 14 83.8 19.9 83.8 27.3C83.8 34.6 77.8 40.6 70.4 40.6C63.1 40.6 57.1 34.6 57.1 27.3Z" fill="#FFD44A"/>
  <path d="M74.8 27.4C81.2 28.1 86 31.7 86 36C86 40.6 80.3 44.3 72.8 44.3C74.9 42 76.1 39.3 76.1 36.5C76.1 33.4 75.6 30.4 74.8 27.4Z" fill="#FF905B"/>
  <circle cx="69.2" cy="24.9" r="3.8" fill="#101722"/>
  <circle cx="70.5" cy="23.7" r="1.2" fill="#F7FBFF"/>
  <path d="M21.8 70.6C27.8 75.4 35.5 78 43.4 78H58.2C66.8 78 75.1 74.9 81.4 69.3" stroke="#0AA7B3" stroke-width="5" stroke-linecap="round"/>
  <path d="M18 78.1C23.8 81.1 30.3 82.6 37 82.6H54.3C61.1 82.6 67.6 81.1 73.7 78.2" stroke="#7EE8F6" stroke-width="3.4" stroke-linecap="round"/>
  <path d="M18.7 29.6C23.1 23.2 29.7 18.8 37.2 17.2" stroke="#7EE8F6" stroke-width="4.4" stroke-linecap="round"/>
  <circle cx="18.2" cy="29.9" r="4.1" fill="#7EE8F6"/>
  <circle cx="79.8" cy="17.4" r="3" fill="#0AA7B3"/>
  <defs>
    <linearGradient id="bg" x1="11" y1="9" x2="86" y2="88" gradientUnits="userSpaceOnUse">
      <stop stop-color="#FFF9E3"/>
      <stop offset="1" stop-color="#EEF9FD"/>
    </linearGradient>
  </defs>
</svg>
